<?xml version="1.0" encoding="UTF-8" standalone="no"?>
<svg
   xmlns:dc="http://purl.org/dc/elements/1.1/"
   xmlns:cc="http://creativecommons.org/ns#"
   xmlns:rdf="http://www.w3.org/1999/02/22-rdf-syntax-ns#"
   xmlns:svg="http://www.w3.org/2000/svg"
   xmlns="http://www.w3.org/2000/svg"
   xmlns:xlink="http://www.w3.org/1999/xlink"
   id="svg19"
   xml:space="preserve"
   viewBox="0 0 200 200"
   y="0px"
   x="0px"
   version="1.1"><metadata
     id="metadata23"><rdf:RDF><cc:Work
         rdf:about=""><dc:format>image/svg+xml</dc:format><dc:type
           rdf:resource="http://purl.org/dc/dcmitype/StillImage" /></cc:Work></rdf:RDF></metadata><defs
     id="defs4"><filter
       height="200%"
       width="200%"
       y="-50%"
       x="-50%"
       id="f1"><feGaussianBlur
         stdDeviation="5"
         in="SourceGraphic"
         id="blur1" /></filter></defs><g
     id="g17"
     transform="matrix(0.8,0,0,0.8,20,20)"><path
       style="opacity:0.6;fill:#000000;stroke:#000000;stroke-width:2;filter:url(#f1)"
       transform="translate(3,5)"
       d="m 46.02,44.611 -0.0018,0.0062 c -0.09378,-0.01415 -0.20094,0.02424 -0.23828,0.08403 -0.03733,0.0597 -1.3609,7.3874 -2.9434,16.285 -1.5817,8.8986 -2.8592,16.229 -2.8359,16.289 0.02326,0.0597 4.5288,3.4167 10.012,7.459 5.4836,4.043 9.9783,7.3764 9.9883,7.4063 0.01,0.03069 -4.4077,2.1835 -9.8184,4.7852 -5.4106,2.6017 -9.8755,4.7733 -9.9219,4.8281 -0.04564,0.0548 -0.06165,0.16785 -0.03511,0.25 0.02653,0.0821 3.0785,2.0914 6.7812,4.4648 3.7029,2.3735 6.8495,4.3746 6.9922,4.4492 l 0.25781,0.13672 0.9961,-0.27539 c 0.5477,-0.15185 3.9968,-1.1034 7.6641,-2.1133 3.6672,-1.0099 6.6759,-1.8228 6.6875,-1.8086 0.0107,0.0149 3.4721,6.4472 7.6895,14.297 4.2174,7.8488 7.668,14.316 7.668,14.371 0,0.0564 -0.67257,0.63087 -1.4941,1.2774 -0.82156,0.64563 -1.5029,1.1806 -1.5137,1.1914 -0.01,0.0104 -0.65404,2.1086 -1.4316,4.6621 -0.77841,2.5535 -1.4042,4.7044 -1.3926,4.7832 0.01238,0.0781 1.9408,1.9 4.2852,4.0469 l 4.2617,3.9024 h 24.693 l 3.1035,-2.8418 c 1.7061,-1.5634 3.6323,-3.3262 4.2812,-3.918 0.64895,-0.59167 1.1797,-1.1298 1.1797,-1.1953 0,-0.0655 -0.63648,-2.2152 -1.4141,-4.7754 -0.77759,-2.5593 -1.4403,-4.6781 -1.4727,-4.707 -0.0324,-0.0291 -0.71252,-0.56373 -1.5117,-1.1895 -0.79832,-0.6257 -1.4622,-1.166 -1.4746,-1.1992 -0.0119,-0.0332 3.439,-6.4989 7.668,-14.369 4.2297,-7.8696 7.6985,-14.321 7.7109,-14.336 0.0119,-0.0149 3.4674,0.92082 7.6797,2.0801 l 7.6582,2.1094 2.2812,-1.459 c 1.2548,-0.80329 4.392,-2.8041 6.9688,-4.4473 2.5775,-1.6432 4.7254,-3.0507 4.7734,-3.127 0.0606,-0.097 0.0581,-0.17004 -0.008,-0.24804 -0.0506,-0.0606 -4.5171,-2.2382 -9.9277,-4.8398 -5.4106,-2.6017 -9.8379,-4.751 -9.8379,-4.7734 -8.1e-4,-0.02326 1.2761,-0.98175 2.8379,-2.1328 1.5618,-1.1502 6.0336,-4.444 9.9355,-7.3203 3.9029,-2.8763 7.1384,-5.2965 7.1914,-5.377 0.0771,-0.11867 -0.46623,-3.3194 -2.7559,-16.207 -1.5684,-8.8322 -2.8826,-16.151 -2.9199,-16.266 -0.0473,-0.14357 -0.12761,-0.20704 -0.26367,-0.20704 -0.10791,0 -0.23083,0.05696 -0.27149,0.125 -0.0406,0.06802 -2.0291,6.2978 -4.4199,13.844 -2.39,7.5459 -4.363,13.736 -4.3828,13.756 -0.0199,0.02079 -5.1496,1.586 -11.398,3.4805 l -11.359,3.4453 -7.4687,-1.7148 -7.4688,-1.7148 -3.5898,-2.3535 c -1.9735,-1.2937 -3.6242,-2.3535 -3.6699,-2.3535 -0.04564,0 -1.6995,1.0608 -3.6738,2.3555 l -3.5879,2.3477 -7.4473,1.7148 -7.4492,1.7129 -4.377,-1.3242 c -2.4075,-0.72862 -6.2247,-1.8837 -8.4844,-2.5684 -2.2588,-0.6838 -5.4148,-1.6404 -7.0098,-2.125 -1.5949,-0.48382 -2.9145,-0.89384 -2.9336,-0.91211 -0.01822,-0.0191 -1.9896,-6.2089 -4.3789,-13.754 -2.39,-7.5452 -4.3774,-13.774 -4.418,-13.842 -0.04069,-0.06802 -0.15038,-0.13627 -0.24414,-0.1504 z m 107.65,2.4648 0.0606,0.65235 c 0.0324,0.35767 0.11614,6.3782 0.1875,13.379 0.0714,7.0016 0.11149,12.748 0.0898,12.77 -0.0215,0.02158 -1.8952,-0.30103 -4.1641,-0.7168 -2.2679,-0.41577 -4.1367,-0.76744 -4.1524,-0.7832 -0.0158,-0.01574 1.7731,-5.7147 3.9746,-12.664 z m -107.28,0.117 c 0.01079,0.0027 0.02388,0.02485 0.03715,0.06448 0.03901,0.11368 1.8433,5.8054 4.0117,12.648 2.1684,6.8431 3.9296,12.456 3.9121,12.475 -0.01742,0.01742 -1.8868,0.37022 -4.1523,0.78516 -2.2647,0.41577 -4.1351,0.73612 -4.1582,0.71289 -0.02326,-0.02326 0.01654,-5.7522 0.08792,-12.73 0.07217,-6.9783 0.15117,-13.004 0.17774,-13.393 0.02795,-0.40392 0.05165,-0.57097 0.08403,-0.56249 z m -0.76758,1.7324 c 0.0191,0.0191 -0.0283,5.6809 -0.10546,12.582 -0.08879,8.0314 -0.16842,12.575 -0.2207,12.625 -0.04564,0.04316 -1.0845,0.60775 -2.3086,1.2559 -1.224,0.64813 -2.2379,1.1661 -2.252,1.1504 -0.01495,-0.01574 1.0719,-6.1897 2.4121,-13.721 1.3402,-7.531 2.4375,-13.746 2.4375,-13.811 8.31e-4,-0.06474 0.01804,-0.1011 0.03706,-0.08199 z m 108.81,0.10742 c 0.0257,0.08712 1.1396,6.3036 2.4766,13.816 1.3361,7.5135 2.4195,13.673 2.4062,13.688 -0.0134,0.01495 -1.0457,-0.51355 -2.293,-1.1758 l -2.2695,-1.2051 -0.0527,-0.35743 c -0.0291,-0.19751 -0.0957,-4.8599 -0.14649,-10.359 -0.0506,-5.5004 -0.11101,-11.026 -0.13086,-12.281 -0.0208,-1.2556 -0.0157,-2.2113 0.01,-2.125 z m -54.426,22.877 c 0.0589,-0.0035 1.5899,0.97008 3.4023,2.1602 1.8124,1.19 3.2887,2.1892 3.2813,2.2207 -0.009,0.03237 -1.4942,2.5401 -3.3008,5.5742 -1.8066,3.0348 -3.3214,5.5176 -3.3652,5.5176 -0.04405,0 -1.5721,-2.5024 -3.3945,-5.5605 l -3.3125,-5.5606 2.627,-1.7285 c 1.4448,-0.95018 2.9259,-1.9278 3.291,-2.1719 0.36514,-0.24481 0.71257,-0.44869 0.77148,-0.45117 z m 45.244,1.0762 h 0.002 c 0.0697,-0.0035 1.9077,0.31977 4.0859,0.71875 2.1793,0.39916 3.9617,0.7463 3.9609,0.76953 -8.3e-4,0.02406 -5.4753,2.8444 -12.164,6.2676 -6.6887,3.4232 -12.206,6.2348 -12.264,6.248 -0.0564,0.01327 -1.4399,-1.5801 -3.0723,-3.541 -1.6332,-1.9602 -2.9675,-3.5943 -2.9668,-3.6309 8.4e-4,-0.03653 0.4794,-0.21161 1.0644,-0.38672 0.58505,-0.17511 2.6524,-0.79836 4.5918,-1.3867 1.9402,-0.58754 5.2078,-1.5798 7.2617,-2.2031 2.0539,-0.62322 5.0029,-1.5181 6.5547,-1.9902 1.5509,-0.47107 2.8758,-0.86062 2.9453,-0.86523 z m -90.562,0.0062 c 0.10042,-0.0044 5.1979,1.5085 11.328,3.3633 6.1302,1.8548 11.169,3.3956 11.199,3.4238 0.02989,0.02742 -1.2845,1.6566 -2.9219,3.6191 -1.6364,1.9626 -3.0257,3.5684 -3.0879,3.5684 -0.06138,0 -5.5895,-2.8014 -12.283,-6.2246 -6.6937,-3.4232 -12.173,-6.2461 -12.174,-6.2734 -0.0018,-0.02821 0.15738,-0.07438 0.35156,-0.10351 0.19418,-0.02822 1.9395,-0.348 3.8789,-0.70899 1.9402,-0.36183 3.6093,-0.65991 3.709,-0.66406 z m -8.9629,1.6621 0.89648,0.48243 c 0.5029,0.26472 6.1234,3.1426 12.49,6.3965 6.3675,3.2539 11.607,5.9422 11.645,5.9746 0.03732,0.03237 -1.2785,1.6801 -2.9258,3.6602 -1.6299,1.9806 -3.0134,3.5996 -3.0566,3.5996 -0.04396,0 -4.5885,-3.3246 -10.1,-7.3867 -5.5102,-4.0621 -10.842,-7.9927 -11.848,-8.7363 -1.005,-0.74356 -1.838,-1.3798 -1.8496,-1.4121 -0.01168,-0.03317 1.0514,-0.62542 2.3633,-1.3184 z m 108.61,0.0098 1.0371,0.53906 c 0.57095,0.29544 1.6448,0.85861 2.3867,1.252 0.74189,0.39418 1.3378,0.74752 1.3262,0.7832 -0.0119,0.03653 -5.3617,4.0032 -11.889,8.8164 -6.526,4.8132 -11.893,8.7433 -11.926,8.7324 -0.0332,-0.01079 -1.4104,-1.6414 -3.0586,-3.623 l -2.998,-3.6016 0.23828,-0.1289 c 0.13031,-0.07138 5.7802,-2.9729 12.559,-6.4492 z m -46.973,1.8848 c 0.0473,-8.31e-4 3.1381,0.70029 6.8691,1.5566 3.7311,0.85641 6.7841,1.5763 6.7832,1.5996 0,0.02326 -4.4338,1.7398 -9.8535,3.8145 -5.4198,2.0746 -9.9779,3.8215 -10.129,3.8828 l -0.27344,0.10938 0.10742,-0.19726 c 0.0597,-0.10872 1.5269,-2.576 3.2598,-5.4805 1.7327,-2.9054 3.189,-5.2835 3.2363,-5.2852 z m -14.766,0.0097 c 0.13693,-0.0062 0.75355,0.97262 3.3203,5.2754 1.7327,2.9045 3.1967,5.3683 3.2539,5.4746 l 0.10352,0.19141 -0.48242,-0.1836 c -0.25,-0.1 -4.805,-1.845 -10.107,-3.876 -5.303,-2.032 -9.642,-3.711 -9.643,-3.735 -8.32e-4,-0.02326 0.62437,-0.18594 1.3887,-0.35937 0.76431,-0.17428 3.7801,-0.86976 6.7012,-1.5469 2.9211,-0.67717 5.3876,-1.2361 5.4805,-1.2402 z m 29.131,3.5664 c 0.0341,-0.0027 0.0625,2.9582 0.0625,6.5781 v 6.582 l -9.2207,6.7012 c -5.0712,3.6863 -9.2275,6.6898 -9.2383,6.6758 -0.0104,-0.0135 -0.6797,-4.0796 -1.4863,-9.0313 -0.8058,-4.9526 -1.4637,-9.0786 -1.4629,-9.1699 0.002,-0.14357 1.4386,-0.71702 10.643,-4.248 5.853,-2.2456 10.669,-4.0854 10.703,-4.0879 z m -43.318,0.01371 c 0.05723,0.0199 4.8746,1.8625 10.705,4.0957 9.1791,3.5162 10.599,4.083 10.6,4.2266 8.31e-4,0.09129 -0.65821,4.2173 -1.4648,9.1699 -0.80662,4.9517 -1.4744,9.0172 -1.4844,9.0312 -0.01,0.0134 -3.935,-2.8216 -8.7207,-6.2988 -4.7851,-3.4732 -8.9341,-6.4878 -9.2207,-6.6953 l -0.508,-0.378 v -6.5898 c 0,-5.2356 0.02132,-6.5829 0.10351,-6.5547 z m -0.78906,0.41016 c 0.01167,0.0097 0.02149,2.8442 0.02149,6.3223 v 6.3359 l -5.8809,2.3789 c -3.2339,1.3079 -5.9162,2.377 -5.9609,2.377 -0.04564,0 -0.18862,-0.58969 -0.31641,-1.3125 l -0.2246,-1.3145 6.1758,-7.3984 c 3.3905,-4.0632 6.1653,-7.3782 6.1855,-7.3887 z m 44.898,0.02344 c 0.0356,0.03503 2.826,3.3719 6.2051,7.418 l 6.1465,7.3594 -0.25391,1.2598 c -0.1394,0.69293 -0.27819,1.2849 -0.31055,1.3164 -0.0315,0.03158 -2.7119,-1.0194 -5.9551,-2.334 l -5.8945,-2.3906 v -6.3457 c 0,-3.4893 0.0285,-6.3154 0.0625,-6.2832 z m -22.465,9.5918 c 0.0233,0 0.64396,3.7248 1.3809,8.2773 0.73692,4.5526 1.3235,8.3058 1.3027,8.3398 -0.0207,0.034 -1.228,0.0625 -2.6836,0.0625 -1.4556,0 -2.6609,-0.0285 -2.6816,-0.0625 -0.0207,-0.0341 0.56387,-3.7872 1.3008,-8.3398 0.73692,-4.5526 1.3585,-8.2773 1.3809,-8.2773 z m -39.385,2.418 0.36719,0.26367 c 0.20166,0.14439 1.0798,0.79074 1.9512,1.4355 l 1.584,1.1719 0.26367,1.3594 c 0.14439,0.74688 0.25777,1.3645 0.25195,1.3711 -0.0062,0.0062 -5.0086,0.70916 -11.117,1.5605 -6.1078,0.85226 -11.145,1.5353 -11.193,1.5195 -0.04732,-0.0158 0.39488,-0.25857 0.98242,-0.53907 0.58754,-0.28049 1.61,-0.77145 2.2715,-1.0918 0.6614,-0.32114 4.2254,-2.0371 7.9199,-3.8164 z m 78.803,0.02149 c 0.0241,0.0107 4.0734,1.9578 8.9961,4.3262 4.9227,2.3693 8.9141,4.3191 8.8692,4.334 -0.0448,0.0149 -4.5208,-0.59083 -9.9473,-1.3477 -5.4256,-0.75683 -10.425,-1.4553 -11.109,-1.5508 -0.68464,-0.09543 -1.2492,-0.17777 -1.2559,-0.18359 -0.006,-0.0062 0.10758,-0.62031 0.25195,-1.3672 l 0.26171,-1.3594 1.9453,-1.4356 c 1.0697,-0.7892 1.9641,-1.4276 1.9883,-1.416 z m -61.969,1.3027 c 0.03405,-0.0035 0.06253,0.62643 0.06253,1.4023 v 1.4102 l -0.31055,0.20117 c -0.17095,0.1112 -1.8012,1.0454 -3.6211,2.0762 -1.8208,1.0315 -3.3452,1.873 -3.3867,1.873 -0.04237,0 -0.97327,-0.53073 -2.0703,-1.1797 -1.5684,-0.9286 -1.9613,-1.1938 -1.8418,-1.2461 0.08385,-0.03653 2.6166,-1.0714 5.6289,-2.2988 3.0124,-1.2274 5.505,-2.2341 5.5391,-2.2383 z m 45.172,0.02538 c 0.073,0.02742 2.5854,1.0449 5.582,2.2598 2.9975,1.2141 5.4989,2.2352 5.5586,2.2676 0.0706,0.03821 -0.60918,0.48418 -1.8789,1.2344 -1.0938,0.64646 -2.024,1.1758 -2.0664,1.1758 -0.0415,0 -0.82087,-0.42245 -1.7305,-0.93945 -0.91035,-0.51701 -2.438,-1.3807 -3.3965,-1.9219 -0.95849,-0.54025 -1.8473,-1.0535 -1.9727,-1.1406 l -0.22657,-0.1582 v -1.4141 c 0,-1.2597 0.0124,-1.4089 0.13087,-1.3633 z m -0.77344,0.13868 c 0.034,-0.0027 0.0605,0.62383 0.0605,1.3906 v 1.3945 l -3.8828,4.9316 c -3.0796,3.912 -4.2666,5.4922 -5.7305,7.6309 -1.0158,1.483 -1.8852,2.6973 -1.9316,2.6973 -0.0456,0 -1.57,-1.0826 -3.3906,-2.4062 -1.8199,-1.3236 -3.3108,-2.4268 -3.3125,-2.4492 -0.003,-0.0233 0.15319,-0.15184 0.34571,-0.28711 0.19336,-0.13447 2.3693,-1.7074 4.834,-3.4941 2.4647,-1.7875 6.3851,-4.6341 8.7129,-6.3262 2.3278,-1.6928 4.2609,-3.0787 4.2949,-3.082 z m -43.684,0.0062 0.0035,0.0035 c 0.04237,0.01495 4.1482,2.9762 9.125,6.582 4.9766,3.6057 9.0497,6.5744 9.0488,6.5977 -8.22e-4,0.0224 -1.4903,1.1256 -3.3086,2.4492 -1.8173,1.3236 -3.3445,2.4062 -3.3926,2.4062 -0.04812,0 -0.9179,-1.2143 -1.9336,-2.6973 -1.4672,-2.1436 -2.6442,-3.7102 -5.7305,-7.6289 l -3.8887,-4.9336 v -1.4043 c 0,-0.82405 0.0314,-1.3916 0.07615,-1.375 z m 44.139,3.3086 c 0.0119,0 1.517,0.84571 3.3418,1.8789 1.8248,1.03319 3.3164,1.9051 3.3164,1.9375 0,0.0324 -3.0426,1.171 -6.7637,2.5312 -3.7211,1.3602 -6.778,2.4589 -6.793,2.4414 -0.0134,-0.0182 1.5278,-2.0048 3.4258,-4.4121 1.8987,-2.4075 3.4603,-4.3761 3.4727,-4.3769 z m -44.609,0.02538 v 0.0018 c 0.03158,0.008 1.6026,1.9745 3.4922,4.3711 1.8896,2.3959 3.4254,4.3702 3.4121,4.3867 -0.01327,0.0165 -3.0702,-1.082 -6.793,-2.4414 -3.722,-1.3593 -6.7676,-2.4963 -6.7676,-2.5254 0,-0.0298 1.4847,-0.89728 3.2988,-1.9297 1.8141,-1.0323 3.3258,-1.8715 3.3574,-1.8633 z m -12.611,1.3945 c 0.07881,-0.0062 0.20828,0.08869 0.28711,0.20898 l 0.14258,0.21875 -0.2461,0.2168 c -0.13527,0.11949 -2.3561,2.093 -4.9336,4.3867 l -4.6875,4.1719 -0.73828,1.1191 c -0.4058,0.6166 -0.76676,1.1211 -0.80078,1.1211 -0.03485,0 -2.1666,-1.3491 -4.7383,-2.998 -2.5726,-1.6481 -5.4152,-3.4682 -6.3164,-4.0449 l -1.6387,-1.0488 0.26954,-0.0606 c 0.14854,-0.034 4.5833,-0.66289 9.8555,-1.3965 5.2721,-0.73277 10.442,-1.4556 11.492,-1.6074 1.0498,-0.15186 1.9739,-0.2813 2.0527,-0.28711 z m 69.729,0.02538 c 0.0637,-0.02494 0.14374,-0.01964 0.27734,0.0018 0.16847,0.02653 5.405,0.75787 11.635,1.625 6.2298,0.86639 11.448,1.6027 11.596,1.6367 l 0.26758,0.0625 -1.1797,0.75976 c -0.64978,0.41824 -3.491,2.2394 -6.3125,4.0469 -2.8206,1.8066 -5.1587,3.2852 -5.1953,3.2852 -0.0373,0 -0.39888,-0.50534 -0.80469,-1.1211 l -0.73632,-1.1211 -4.6797,-4.1699 c -2.5735,-2.2938 -4.7924,-4.2673 -4.9336,-4.3867 l -0.25587,-0.21485 0.14649,-0.22656 c 0.0647,-0.09876 0.11208,-0.15284 0.17578,-0.17774 z m -68.637,0.42969 0.28711,0.17578 c 0.15768,0.09709 1.0063,0.60496 1.8867,1.127 l 1.6016,0.94726 3.3047,4.5547 3.3047,4.5566 2.5098,7.3867 c 1.3809,4.0621 3.0126,8.8597 3.625,10.662 0.61244,1.8024 1.0817,3.2401 1.041,3.1953 -0.04069,-0.0448 -3.8759,-7.1601 -8.5215,-15.809 -4.6456,-8.6496 -8.5795,-15.968 -8.7422,-16.262 z m 67.48,0.15039 v 0.0018 c 0.0165,0.01574 -3.881,7.3051 -8.6602,16.199 -4.7792,8.8937 -8.7211,16.207 -8.7617,16.252 -0.0406,0.0448 0.42888,-1.3976 1.043,-3.2051 0.61409,-1.8082 2.2457,-6.6058 3.625,-10.662 l 2.5078,-7.375 3.3008,-4.5527 3.3008,-4.5527 1.8086,-1.0664 c 0.99417,-0.58755 1.8203,-1.0557 1.8359,-1.0391 z m 0.59961,0.48047 c 0.0356,0.01327 1.9311,1.6873 4.2148,3.7188 2.2838,2.0306 4.1437,3.7013 4.1328,3.7129 -0.0104,0.0119 -2.3654,-0.79866 -5.2324,-1.8027 -2.8672,-1.0033 -5.2226,-1.8353 -5.2324,-1.8476 -0.0104,-0.0119 0.41505,-0.82374 0.94532,-1.8047 0.53111,-0.98173 0.99699,-1.8336 1.0352,-1.8926 0.0382,-0.0597 0.10105,-0.09812 0.13672,-0.08403 z m -68.504,0.01565 c 0.04564,0.01167 0.53716,0.8596 1.0898,1.8828 0.64978,1.2016 0.9727,1.88 0.91211,1.9141 -0.05059,0.0298 -2.4048,0.8609 -5.2305,1.8477 -2.8265,0.98588 -5.1464,1.783 -5.1563,1.7715 -0.0091,-0.0119 1.8546,-1.6886 4.1426,-3.7285 2.287,-2.039 4.1965,-3.6999 4.2422,-3.6875 z m 63.1,2.084 c 0.0158,0.0149 -1.2857,1.8343 -2.8906,4.0449 l -2.918,4.0215 -3.8516,-1.541 c -2.1187,-0.84727 -3.8516,-1.5601 -3.8516,-1.5859 8.2e-4,-0.0249 0.51407,-0.23132 1.1406,-0.45704 0.62736,-0.22655 3.6618,-1.334 6.7422,-2.4609 3.0812,-1.127 5.6131,-2.0355 5.6289,-2.0215 z m -57.744,0.004 c 0,-0.0241 0.23211,0.0387 0.51758,0.14258 0.28547,0.10373 3.3298,1.2156 6.7637,2.4688 3.4339,1.2531 6.2441,2.297 6.2441,2.3203 8.31e-4,0.024 -1.6137,0.69411 -3.5879,1.4883 -1.9742,0.79336 -3.7057,1.4919 -3.8477,1.5508 l -0.25782,0.10547 -2.916,-4.0156 c -1.604,-2.2091 -2.916,-4.0356 -2.916,-4.0606 z m 60.738,2.2754 c 0.0273,-8.2e-4 2.7459,0.93962 6.043,2.0898 l 5.9941,2.0918 0.54687,0.82228 c 0.30042,0.45226 0.53134,0.83862 0.50977,0.85936 -0.0207,0.0208 -2.2928,-0.58329 -5.0488,-1.3418 -2.7551,-0.75849 -5.9046,-1.6234 -7,-1.9238 -1.0954,-0.30123 -2.0223,-0.57534 -2.0605,-0.60937 -0.0389,-0.0332 0.16375,-0.49595 0.44922,-1.0254 0.28548,-0.53029 0.53984,-0.9629 0.5664,-0.9629 z m -63.76,0.006 c 0.049,-0.003 0.32391,0.42675 0.60938,0.95703 0.28546,0.52944 0.48821,0.99167 0.44922,1.0273 -0.03821,0.0356 -0.76069,0.25367 -1.6055,0.48438 -0.84397,0.23071 -3.995,1.0975 -7,1.9258 -3.0057,0.82738 -5.4815,1.4853 -5.5039,1.4629 -0.02158,-0.0217 0.20546,-0.40651 0.50586,-0.85547 l 0.54688,-0.8164 5.9531,-2.0898 c 3.2747,-1.1485 5.9951,-2.0915 6.0449,-2.0957 z m 46.443,3.0644 c 0.0415,0 1.8937,0.73231 4.1152,1.627 2.2215,0.8946 4.0518,1.6397 4.0684,1.6563 0.0174,0.0158 -1.7724,5.3327 -3.9766,11.816 -2.205,6.4829 -4.0301,11.787 -4.0566,11.787 -0.0256,0 -0.91402,-4.8401 -1.9746,-10.758 l -1.9277,-10.758 1.8379,-2.6856 c 1.0116,-1.4763 1.8726,-2.6856 1.9141,-2.6856 z m -29.1,0.004 c 0.04891,-0.003 0.91612,1.2053 1.9277,2.6816 l 1.8379,2.6856 -1.9277,10.758 c -1.0606,5.9177 -1.9507,10.76 -1.9766,10.76 -0.02653,0 -1.8511,-5.3112 -4.0586,-11.801 -2.2066,-6.4904 -3.979,-11.812 -3.9375,-11.828 0.04237,-0.0149 1.8698,-0.75442 4.0605,-1.6406 2.1908,-0.88547 4.0245,-1.6127 4.0742,-1.6152 z m 11.662,0.086 h 2.5547 v 25.797 l -0.14649,0.041 c -0.07969,0.0233 -3.1403,0.46205 -6.8008,0.97657 -3.6614,0.51535 -6.6791,0.91268 -6.709,0.8828 -0.02989,-0.0298 2.27,-5.8163 5.1113,-12.859 2.8423,-7.0431 5.3535,-13.263 5.5801,-13.822 z m 3.2168,0 h 2.5547 l 0.41015,1.0156 c 0.22655,0.55932 2.7368,6.7793 5.5781,13.822 2.8423,7.0431 5.1454,12.83 5.1172,12.857 -0.0273,0.0273 -0.8815,-0.0681 -1.8965,-0.21094 -1.0157,-0.14359 -3.9943,-0.56094 -6.6192,-0.92774 -2.624,-0.36681 -4.8542,-0.68657 -4.957,-0.70898 l -0.1875,-0.043 z m -4.1738,0.78125 c 0.0091,0.007 -2.1919,5.4716 -4.8906,12.145 -2.6996,6.6729 -4.9187,12.122 -4.9336,12.107 -0.01415,-0.0149 0.75824,-4.4013 1.7168,-9.748 0.95849,-5.3468 1.7422,-9.7551 1.7422,-9.7949 0,-0.0399 1.0163,-0.81677 2.2578,-1.7246 1.2423,-0.90786 2.6701,-1.9541 3.1738,-2.3242 0.50372,-0.37094 0.92447,-0.6668 0.93359,-0.66016 z m 7.6699,0.0254 c -0.0174,-0.0464 0.0401,-0.0326 0.1289,0.0312 0.0888,0.0639 1.5304,1.1199 3.2051,2.3457 1.6746,1.2257 3.0449,2.262 3.0449,2.3027 0,0.0415 0.78565,4.4512 1.7442,9.7988 0.95849,5.3477 1.729,9.734 1.7148,9.748 -0.0135,0.0149 -2.2257,-5.4123 -4.916,-12.059 -2.6896,-6.6454 -4.9046,-12.122 -4.9219,-12.168 z m -3.7031,25.629 c 0.13687,0.0174 3.2923,0.48106 7.0117,1.0312 3.7203,0.5502 6.792,1.0096 6.8242,1.0195 0.0332,0.0104 -1.6473,2.3616 -3.7344,5.2246 l -3.7949,5.2051 h -12.85 l -3.485,-4.8 c -1.917,-2.629 -3.6246,-4.9736 -3.793,-5.2109 l -0.30664,-0.42969 3.502,-0.52148 c 1.9261,-0.28712 5.0516,-0.75697 6.9453,-1.0449 1.8945,-0.28796 3.5565,-0.50879 3.6934,-0.49219 z m 14.295,2.6777 c 0.0165,0.0499 0.17197,0.83977 0.34375,1.7558 l 0.31251,1.666 -3.3692,2.4707 c -1.8523,1.3585 -3.4234,2.5043 -3.4922,2.5449 -0.068,0.0415 -0.028,-0.0532 0.0898,-0.21094 0.11701,-0.15767 1.5335,-2.0944 3.1484,-4.3027 1.6157,-2.2091 2.9502,-3.9735 2.9668,-3.9238 z m -28.734,0.0273 c 0.05643,0.0613 1.438,1.9413 3.0703,4.1777 1.6315,2.2364 3.0099,4.12 3.0605,4.1855 0.07553,0.0954 0.06598,0.10326 -0.04104,0.041 -0.07306,-0.0424 -1.6464,-1.1895 -3.4961,-2.5488 l -3.3633,-2.4707 0.06448,-0.3086 c 0.03564,-0.17012 0.18431,-0.95642 0.33203,-1.748 0.2166,-1.161 0.28924,-1.417 0.37305,-1.3281 z m 29.523,0.008 c 0.075,0.0363 0.19392,0.11848 0.37109,0.25585 0.26224,0.20332 0.81242,0.63198 1.2207,0.95313 l 0.7422,0.58203 1.0586,3.4727 c 0.58255,1.9096 1.0487,3.5054 1.0371,3.5469 -0.0119,0.0415 -0.88832,-1.1429 -1.9473,-2.6309 -1.0597,-1.4888 -1.9432,-2.7555 -1.9648,-2.8144 -0.0217,-0.0597 -0.17188,-0.80372 -0.33204,-1.6543 -0.16016,-0.84979 -0.29101,-1.6091 -0.29101,-1.6856 0,-0.0518 0.0305,-0.0617 0.10547,-0.0254 z m -30.328,0.0196 c 0.01327,0.0564 -0.10966,0.80849 -0.27148,1.6699 -0.16266,0.86221 -0.31437,1.6161 -0.33593,1.6758 -0.02158,0.0589 -0.90506,1.3257 -1.9648,2.8144 -1.0589,1.488 -1.9356,2.6724 -1.9473,2.6309 -0.01167,-0.0415 0.45538,-1.6373 1.0371,-3.5469 l 1.0586,-3.4726 1.1992,-0.9375 c 0.66804,-0.52282 1.2105,-0.89124 1.2246,-0.83398 z m 30.027,4.3008 c 0.009,0.009 -0.62481,2.9905 -1.4082,6.6269 -0.78339,3.6356 -1.4484,6.6339 -1.4766,6.6621 -0.0282,0.0282 -1.1444,-1.6221 -2.4805,-3.666 -1.3369,-2.0439 -2.4344,-3.7609 -2.4395,-3.8164 -0.004,-0.0556 1.7451,-1.3894 3.8887,-2.9629 2.1436,-1.5742 3.9069,-2.8528 3.916,-2.8437 z m -29.828,0.004 c 0.01141,-0.0128 0.03874,-0.004 0.08402,0.0234 0.06554,0.0389 1.8444,1.339 3.9531,2.8867 2.1096,1.5485 3.8187,2.8567 3.7988,2.9082 -0.0199,0.0515 -1.1276,1.7644 -2.4629,3.8066 -1.3352,2.0432 -2.4548,3.6858 -2.4863,3.6484 -0.03237,-0.0365 -0.68267,-2.9789 -1.4453,-6.5391 -0.76264,-3.56 -1.4067,-6.5443 -1.4316,-6.6289 -0.01698,-0.0585 -0.02114,-0.0926 -0.0097,-0.10548 z m -0.67969,0.0527 c 0.02653,0 0.68674,2.9588 1.4668,6.5762 0.77923,3.6174 1.4058,6.5905 1.3926,6.6055 -0.01415,0.0149 -1.6819,-1.4909 -3.7051,-3.3457 -2.0241,-1.8539 -3.6748,-3.4158 -3.6699,-3.4707 0.0053,-0.0548 1.0117,-1.5097 2.2383,-3.2324 1.2265,-1.7229 2.2515,-3.1328 2.2773,-3.1328 z m 31.213,0.0196 c 0.0341,0.0119 1.0591,1.4228 2.2774,3.1348 1.2174,1.7112 2.2268,3.1496 2.2441,3.1953 0.0182,0.0464 -1.6311,1.6088 -3.666,3.4726 -2.0348,1.8639 -3.7116,3.3772 -3.7266,3.3613 -0.0149,-0.0158 0.61056,-2.9892 1.3906,-6.6074 0.78007,-3.6174 1.4464,-6.5683 1.4805,-6.5566 z m -21.977,5.9707 h 12.728 l 0.12499,0.14453 c 0.0681,0.0797 1.0848,1.6152 2.2598,3.4102 1.1751,1.795 2.1243,3.2749 2.1094,3.2891 -0.0158,0.0134 -1.4053,-0.96001 -3.0898,-2.1641 l -3.0625,-2.1914 h -9.4355 l -2.8418,2.0566 c -1.5643,1.1303 -2.9699,2.1452 -3.125,2.2539 l -0.27929,0.19922 0.28906,-0.44921 c 0.15851,-0.2473 1.1401,-1.7559 2.1816,-3.3535 1.0406,-1.5975 1.9488,-2.9711 2.0176,-3.0508 z m 10.857,3.1543 3.334,2.3027 3.334,2.3027 -5.5801,0.0215 c -3.0696,0.0119 -8.0899,0.0119 -11.156,0 l -5.5762,-0.0215 3.3144,-2.2988 3.3145,-2.2969 4.5078,-0.006 z"
       id="shadow" /><animate
       fill="freeze"
       repeatCount="indefinite"
       keySplines=".73 .18 .24 .87;          .73 .18 .24 .87;"
       calcMode="spline"
       keyTimes="0; 0.5; 1"
       values="5; 30; 5"
       begin="0s"
       dur="4s"
       to="5"
       from="5"
       attributeName="stdDeviation"
       xlink:href="#blur1" /><animate
       fill="freeze"
       repeatCount="indefinite"
       keyTimes="0; 0.5; 1"
       values="0.6; 0.1; 0.6"
       begin="0s"
       dur="4s"
       to="0.1"
       from="0.6"
       attributeName="opacity"
       xlink:href="#shadow" /><animateTransform
       repeatCount="indefinite"
       dur="4s"
       keySplines=".73 .18 .24 .87;          .73 .18 .24 .87;"
       calcMode="spline"
       values="0 0; 0 -10; 0 0"
       to="0 0"
       from="0 0"
       type="translate"
       attributeType="XML"
       attributeName="transform"
       xlink:href="#logo-hover" /><g
       id="logo-hover"><defs
         id="defs329639" /><linearGradient
         spreadMethod="pad"
         y2="0.30000001"
         x2="-0.1"
         y1="1.2"
         x1="0.30000001"
         id="3d_gradient2-logo-51D135FBEB6D4759A98A3392EEF1F104"><stop
           id="stop329616"
           stop-opacity="1"
           stop-color="#ffffff"
           offset="0%" /><stop
           id="stop329618"
           stop-opacity="1"
           stop-color="#000000"
           offset="100%" /></linearGradient><linearGradient
         gradientTransform="rotate(-30)"
         spreadMethod="pad"
         y2="0.30000001"
         x2="-0.1"
         y1="1.2"
         x1="0.30000001"
         id="3d_gradient3-logo-51D135FBEB6D4759A98A3392EEF1F104"><stop
           id="stop329621"
           stop-opacity="1"
           stop-color="#ffffff"
           offset="0%" /><stop
           id="stop329623"
           stop-opacity="1"
           stop-color="#cccccc"
           offset="50%" /><stop
           id="stop329625"
           stop-opacity="1"
           stop-color="#000000"
           offset="100%" /></linearGradient><path
         style="fill:#ffffff;stroke-width:1.49255586"
         d="m 46.018406,44.617534 c -0.09378,-0.01418 -0.200824,0.02324 -0.238168,0.08299 -0.03734,0.05975 -1.362628,7.389047 -2.945111,16.286769 -1.581661,8.898618 -2.858095,16.228559 -2.834811,16.288262 0.02324,0.05975 4.528564,3.417355 10.011467,7.459644 5.48365,4.043035 9.978184,7.375017 9.988184,7.404868 0.01,0.0307 -4.408264,2.183311 -9.818928,4.784985 -5.410664,2.601674 -9.875346,4.774978 -9.921765,4.829758 -0.04564,0.0548 -0.0614,0.16681 -0.03485,0.24896 0.02655,0.0821 3.078844,2.09122 6.781577,4.46468 3.702882,2.37346 6.848891,4.37587 6.991579,4.4505 l 0.258093,0.13523 0.995833,-0.27553 c 0.547708,-0.15185 3.996617,-1.10204 7.663826,-2.11196 3.66721,-1.00994 6.677098,-1.82406 6.68874,-1.80988 0.01075,0.0149 3.471237,6.44799 7.688602,14.29764 4.217366,7.84876 7.667857,14.316 7.667857,14.37152 0,0.0564 -0.672188,0.62986 -1.49375,1.27633 -0.821563,0.64564 -1.502108,1.18172 -1.512855,1.19251 -0.01,0.0104 -0.654754,2.10704 -1.432346,4.66051 -0.778412,2.55346 -1.404122,4.70617 -1.39251,4.78498 0.01239,0.0781 1.940174,1.89868 4.284531,4.04557 l 4.262142,3.90289 h 24.694337 l 3.10198,-2.84228 c 1.70614,-1.56345 3.63318,-3.32601 4.28214,-3.91781 0.64895,-0.59168 1.18006,-1.13026 1.18006,-1.19582 0,-0.0655 -0.6365,-2.21405 -1.41408,-4.77424 -0.77759,-2.55928 -1.44064,-4.67796 -1.473,-4.70692 -0.0324,-0.0291 -0.71203,-0.56431 -1.51121,-1.19003 -0.79833,-0.62571 -1.46222,-1.16512 -1.47466,-1.19831 -0.012,-0.0331 3.4381,-6.50038 7.66711,-14.37063 4.22975,-7.86965 7.69949,-14.32092 7.71188,-14.33585 0.0119,-0.0149 3.46721,0.92197 7.6795,2.08122 l 7.65801,2.10868 2.28122,-1.45889 c 1.25474,-0.8033 4.3908,-2.80407 6.96755,-4.44722 2.57749,-1.64316 4.72528,-3.04974 4.77334,-3.12601 0.0606,-0.097 0.0597,-0.17096 -0.006,-0.24896 -0.0506,-0.0606 -4.51856,-2.238979 -9.92923,-4.840653 -5.41066,-2.601674 -9.83803,-4.749313 -9.83803,-4.771701 -8.2e-4,-0.02324 1.27716,-0.98255 2.83899,-2.133609 1.56181,-1.150193 6.03306,-4.444681 9.93505,-7.320986 3.90288,-2.876304 7.13934,-5.296185 7.19233,-5.376633 0.0772,-0.118674 -0.46638,-3.318549 -2.75601,-16.206171 -1.56838,-8.832199 -2.88302,-16.150947 -2.92033,-16.265873 -0.0473,-0.143569 -0.12866,-0.207466 -0.26472,-0.207466 -0.10791,0 -0.22905,0.05643 -0.26971,0.124479 -0.0406,0.06805 -2.02987,6.29784 -4.42065,13.843754 -2.39003,7.545914 -4.36259,13.735842 -4.38244,13.755842 -0.0198,0.02075 -5.14932,1.586736 -11.3982,3.481237 l -11.36074,3.444819 -7.46875,-1.715394 -7.46875,-1.714499 -3.58825,-2.353462 c -1.97346,-1.293748 -3.62572,-2.352716 -3.67139,-2.352716 -0.04567,0 -1.698678,1.05973 -3.67303,2.354358 l -3.588105,2.349282 -7.447853,1.713454 -7.447853,1.713454 -4.377667,-1.323897 c -2.407492,-0.72862 -6.225599,-1.883754 -8.485329,-2.56839 -2.258834,-0.683799 -5.413201,-1.639871 -7.008146,-2.124503 -1.594945,-0.483812 -2.91526,-0.895415 -2.934365,-0.913683 -0.01825,-0.01909 -1.989129,-6.207391 -4.378412,-13.75241 -2.39003,-7.545168 -4.378413,-13.774797 -4.41901,-13.842858 -0.04066,-0.06804 -0.150211,-0.136091 -0.243973,-0.15021 z m 0.404482,2.640331 c 0.039,0.113688 1.844799,5.805744 4.013184,12.648814 2.168385,6.84307 3.928556,12.455378 3.911093,12.473587 -0.01743,0.01743 -1.885396,0.370945 -4.150947,0.785876 -2.264654,0.415766 -4.136916,0.736083 -4.160051,0.712844 -0.02324,-0.02324 0.0166,-5.751713 0.08797,-12.730008 0.0722,-6.978296 0.152689,-13.004788 0.179256,-13.393151 0.03734,-0.538574 0.06639,-0.656426 0.119494,-0.497917 z m 107.308792,0.469708 c 0.0324,0.357676 0.11702,6.379183 0.18838,13.379867 0.0713,7.001579 0.11209,12.747471 0.0904,12.769113 -0.0215,0.02158 -1.89539,-0.300406 -4.16423,-0.716173 -2.26793,-0.415766 -4.13691,-0.768457 -4.15259,-0.784218 -0.0158,-0.01576 1.77346,-5.714399 3.97498,-12.663739 l 4.00408,-12.63553 z M 45.618401,48.925065 c 0.01909,0.01909 -0.02739,5.681265 -0.104569,12.582395 -0.08879,8.031443 -0.168465,12.575678 -0.220749,12.625529 -0.04564,0.04315 -1.084625,0.608291 -2.308685,1.256404 -1.224045,0.648127 -2.237341,1.165955 -2.251371,1.150193 -0.01494,-0.01576 1.07052,-6.190823 2.410776,-13.721811 1.340225,-7.530989 2.43809,-13.745842 2.43809,-13.810619 8.3e-4,-0.06473 0.01743,-0.10124 0.03651,-0.08215 z m 108.813289,0.107882 c 0.0257,0.08714 1.14024,6.304407 2.47719,13.817186 1.33608,7.513526 2.41824,13.672856 2.40496,13.687782 -0.0134,0.01494 -1.04563,-0.514514 -2.29287,-1.176746 l -2.26883,-1.204135 -0.0539,-0.358497 c -0.0291,-0.197509 -0.0954,-4.858866 -0.14612,-10.358337 -0.0506,-5.500366 -0.10956,-11.027151 -0.12941,-12.281943 -0.0207,-1.255583 -0.0166,-2.21152 0.009,-2.12525 z m -54.42605,22.877895 c 0.059,-0.0033 1.59002,0.968445 3.40243,2.158535 1.81241,1.190014 3.2887,2.190027 3.28124,2.22152 -0.009,0.03236 -1.49375,2.54018 -3.30034,5.574248 -1.80659,3.034814 -3.32198,5.516934 -3.36587,5.516934 -0.04403,0 -1.570911,-2.501971 -3.393321,-5.560069 l -3.312877,-5.560069 2.627346,-1.728529 c 1.444794,-0.950191 2.92526,-1.928531 3.290339,-2.172564 0.365139,-0.244809 0.712024,-0.447289 0.770933,-0.449782 z m -45.31847,1.080477 c 0.100419,-0.0042 5.197377,1.510317 11.327603,3.365116 6.130225,1.854799 11.170735,3.394967 11.200586,3.423177 0.02988,0.02739 -1.284628,1.656438 -2.921976,3.619 -1.636439,1.962561 -3.026456,3.568402 -3.088695,3.568402 -0.0614,0 -5.589174,-2.800781 -12.282839,-6.223958 -6.693665,-3.423176 -12.17239,-6.247241 -12.173285,-6.274555 -0.0016,-0.02821 0.156017,-0.07469 0.350198,-0.103733 0.194182,-0.02821 1.940173,-0.347705 3.8796,-0.708695 1.940174,-0.361825 3.609,-0.660575 3.708703,-0.664725 z m 90.56381,-0.0042 c 0.0681,-0.0033 1.90778,0.319497 4.08706,0.718666 2.17928,0.399169 3.96169,0.746039 3.96095,0.769278 -8.4e-4,0.02406 -5.47455,2.844812 -12.16329,6.267988 -6.68874,3.423177 -12.20731,6.234704 -12.26448,6.247988 -0.0564,0.01328 -1.43981,-1.580915 -3.07212,-3.541835 -1.63316,-1.960173 -2.9684,-3.59497 -2.96765,-3.631537 8.3e-4,-0.03651 0.48049,-0.210779 1.06555,-0.385886 0.58505,-0.175106 2.65137,-0.799159 4.5908,-1.387524 1.94017,-0.587545 5.20738,-1.578378 7.26128,-2.201669 2.05391,-0.623232 5.0041,-1.518676 6.55591,-1.990771 1.55181,-0.471364 2.87794,-0.860563 2.946,-0.864713 z M 46.621398,75.13642 c 0.502902,0.264719 6.123509,3.143471 12.490304,6.397392 6.367542,3.253921 11.607308,5.942611 11.644622,5.975 0.03734,0.03236 -1.279643,1.678827 -2.926902,3.658851 -1.629871,1.980622 -3.01347,3.600045 -3.056754,3.600045 -0.04399,0 -4.588266,-3.323624 -10.099379,-7.385763 -5.510218,-4.06214 -10.842075,-7.99398 -11.847908,-8.737571 -1.004968,-0.743562 -1.837336,-1.378406 -1.848978,-1.410764 -0.01164,-0.03319 1.052267,-0.626545 2.364208,-1.319479 l 2.384955,-1.260553 z m 108.753582,0.06639 c 0.57095,0.295436 1.6439,0.859742 2.38585,1.25309 0.74189,0.394184 1.33939,0.746039 1.32778,0.781726 -0.0119,0.03651 -5.36171,4.004079 -11.88865,8.817273 -6.52605,4.813194 -11.89358,8.742646 -11.92672,8.73175 -0.0331,-0.01075 -1.40993,-1.640617 -3.0581,-3.622283 l -2.99824,-3.602433 0.23734,-0.128629 c 0.13031,-0.07137 5.78157,-2.972574 12.56001,-6.448885 l 12.32344,-6.319332 z m -62.775401,1.356822 c 0.136928,-0.0058 0.752681,0.971774 3.319445,5.274543 1.732708,2.904514 3.197502,5.367529 3.254667,5.473799 l 0.104568,0.191704 -0.482976,-0.183405 c -0.265555,-0.10124 -4.821552,-1.845545 -10.123409,-3.876317 -5.302752,-2.031517 -9.641313,-3.711986 -9.642209,-3.73527 -8.3e-4,-0.02324 0.624053,-0.185062 1.388361,-0.358497 0.764308,-0.174271 3.780046,-0.870518 6.701127,-1.547631 2.921081,-0.677172 5.38753,-1.234836 5.480367,-1.238985 z m 14.764961,-0.01 c 0.0473,-8.3e-4 3.13929,0.69874 6.87038,1.555094 3.73109,0.856414 6.78412,1.576736 6.78322,1.60002 0,0.02324 -4.43483,1.739424 -9.8546,3.814077 -5.41977,2.074653 -9.97654,3.82154 -10.12759,3.882884 l -0.27385,0.110374 0.10791,-0.19833 c 0.0597,-0.108718 1.52524,-2.575107 3.2581,-5.47962 1.73271,-2.90541 3.18914,-5.282902 3.23646,-5.284544 z m -28.952599,3.589597 c 0.05725,0.01991 4.873792,1.863008 10.704312,4.09617 9.179069,3.516163 10.600579,4.082886 10.601474,4.22647 8.3e-4,0.09128 -0.658903,4.217366 -1.46554,9.169965 -0.806622,4.951706 -1.47466,9.015636 -1.484616,9.029666 -0.01,0.0134 -3.934377,-2.82064 -8.720108,-6.29784 -4.785134,-3.473179 -8.934439,-6.488142 -9.221009,-6.695607 L 78.308537,93.288944 V 86.69931 c 0,-5.235587 0.02158,-6.583216 0.103732,-6.555006 z m 43.318449,-0.01328 c 0.034,-0.0025 0.0622,2.957649 0.0622,6.577544 v 6.581574 l -9.21982,6.701128 c -5.07125,3.686315 -9.22892,6.689495 -9.23966,6.675455 -0.0105,-0.0134 -0.67883,-4.07796 -1.48546,-9.029663 -0.8058,-4.952599 -1.4647,-9.07862 -1.46388,-9.169964 0.001,-0.143569 1.43899,-0.71783 10.64297,-4.248859 5.85306,-2.24555 10.66953,-4.084528 10.70356,-4.087066 z m -44.106518,0.411617 c 0.01164,-8.3e-4 0.02075,2.849737 0.02075,6.334258 v 6.336048 l -5.880371,2.377493 c -3.233921,1.307867 -5.916939,2.378387 -5.961716,2.378387 -0.04564,0 -0.187554,-0.590858 -0.315347,-1.313673 l -0.225376,-1.313449 6.176196,-7.398599 c 3.395863,-4.069603 6.18336,-7.399942 6.194853,-7.399942 z m 44.896078,0.0332 c 0.034,0.03319 2.82735,3.372579 6.20739,7.419793 l 6.1459,7.358449 -0.25395,1.259732 c -0.1394,0.692934 -0.27884,1.285449 -0.31119,1.316987 -0.0315,0.03154 -2.71108,-1.019072 -5.95426,-2.333611 l -5.89559,-2.391074 v -6.345154 c 0,-3.490341 0.0282,-6.318585 0.0622,-6.284555 z m -22.46296,9.592656 c 0.0233,0 0.64397,3.72527 1.38088,8.277864 0.73692,4.552594 1.32281,8.306074 1.30206,8.340104 -0.0208,0.034 -1.22737,0.0622 -2.68302,0.0622 -1.45557,0 -2.662122,-0.0282 -2.682868,-0.0622 -0.02075,-0.034 0.565141,-3.78751 1.302046,-8.340104 0.736919,-4.552594 1.358482,-8.277864 1.380882,-8.277864 z m -39.018398,2.682869 c 0.201659,0.14439 1.079655,0.79086 1.951068,1.435659 l 1.585095,1.171761 0.263063,1.359316 c 0.14439,0.746874 0.258092,1.363464 0.252271,1.370106 -0.0066,0.0066 -5.009017,0.709531 -11.1176,1.560915 -6.107837,0.852262 -11.144168,1.536142 -11.192377,1.520322 -0.0473,-0.0158 0.394184,-0.25808 0.981728,-0.53858 0.587545,-0.28049 1.609871,-0.771769 2.271372,-1.092102 0.661396,-0.321153 4.225724,-2.038085 7.920247,-3.81736 l 6.717695,-3.233921 z m 78.436788,-0.241794 c 0.024,0.01075 4.07214,1.957636 8.99489,4.326024 4.92275,2.369283 8.91444,4.318559 8.86951,4.333489 -0.0448,0.0149 -4.5202,-0.5917 -9.94669,-1.348527 -5.42559,-0.75683 -10.4255,-1.453914 -11.11013,-1.549422 -0.68464,-0.09543 -1.24978,-0.177585 -1.25641,-0.183406 -0.006,-0.0058 0.10791,-0.621559 0.25227,-1.368434 l 0.26307,-1.359316 1.94525,-1.435659 c 1.06968,-0.789204 1.9642,-1.426525 1.98838,-1.414913 z m -61.96942,1.301508 c 0.03403,-0.0033 0.06224,0.627381 0.06224,1.403301 v 1.409107 l -0.311198,0.20166 c -0.170957,0.111195 -1.800768,1.044789 -3.620641,2.075548 -1.820769,1.031519 -3.34437,1.874649 -3.385863,1.874649 -0.04233,0 -0.97343,-0.53111 -2.070474,-1.180059 -1.568377,-0.928608 -1.961815,-1.194999 -1.842261,-1.247284 0.08382,-0.03651 2.616599,-1.07052 5.628875,-2.297939 3.012426,-1.227358 5.505292,-2.234803 5.539322,-2.238983 z m 45.1722,0.02655 c 0.073,0.02739 2.58421,1.043968 5.58082,2.258834 2.9975,1.21409 5.49872,2.234804 5.55842,2.267192 0.0706,0.03818 -0.60911,0.485469 -1.87883,1.235657 -1.09376,0.646462 -2.02316,1.175912 -2.06554,1.175912 -0.0415,0 -0.82073,-0.42239 -1.73032,-0.939401 -0.91036,-0.517007 -2.43899,-1.381719 -3.39751,-1.92286 -0.95849,-0.540245 -1.84554,-1.053923 -1.97092,-1.141059 l -0.22821,-0.157673 v -1.414943 c 0,-1.259732 0.0134,-1.408271 0.13194,-1.362629 z M 78.225372,94.07943 c 0.04233,0.01494 4.148409,2.9775 9.125187,6.58337 4.976629,3.60571 9.048023,6.57411 9.047127,6.59739 -8.3e-4,0.0224 -1.488764,1.12446 -3.307056,2.44809 -1.817336,1.32363 -3.344369,2.4066 -3.39243,2.4066 -0.04814,0 -0.918653,-1.21409 -1.934352,-2.69705 -1.467197,-2.14361 -2.643913,-3.70945 -5.73022,-7.62815 l -3.889601,-4.934394 v -1.403003 c 0,-0.824055 0.03154,-1.392509 0.07635,-1.375912 z m 43.678148,-0.0091 c 0.034,-0.0025 0.0622,0.623231 0.0622,1.390017 v 1.395002 l -3.88452,4.932741 c -3.07959,3.91199 -4.26632,5.49112 -5.73022,7.6298 -1.01575,1.48296 -1.88376,2.69705 -1.93018,2.69705 -0.0457,0 -1.57181,-1.08297 -3.39243,-2.4066 -1.81987,-1.32363 -3.31033,-2.4257 -3.31198,-2.44809 -0.003,-0.0233 0.15436,-0.15187 0.34689,-0.28714 0.19336,-0.13448 2.36764,-1.70703 4.8323,-3.49377 2.46465,-1.78749 6.38575,-4.633936 8.71354,-6.326047 2.32779,-1.692856 4.2605,-3.07959 4.29453,-3.082874 z m -44.154274,3.341086 c 0.03154,0.0084 1.603304,1.975099 3.492879,4.371694 1.889576,2.39585 3.424819,4.37005 3.411535,4.38662 -0.01328,0.0166 -3.068844,-1.08215 -6.791576,-2.44152 -3.721987,-1.3593 -6.767547,-2.49541 -6.767547,-2.52451 0,-0.0298 1.484615,-0.89791 3.298698,-1.930321 1.814052,-1.032341 3.324369,-1.870471 3.356011,-1.862261 z m 44.611004,-0.02657 c 0.0119,0 1.51539,0.845622 3.34019,1.878829 1.8248,1.033175 3.3178,1.904495 3.3178,1.936885 0,0.0324 -3.04392,1.17176 -6.76501,2.53198 -3.72109,1.36015 -6.77665,2.45809 -6.79158,2.44062 -0.0134,-0.0182 1.52689,-2.00331 3.42482,-4.41065 1.89868,-2.407491 3.46139,-4.37662 3.47378,-4.377515 z m -57.221608,1.420719 c 0.07884,-0.0058 0.207466,0.08797 0.286302,0.208301 l 0.142733,0.218256 -0.245644,0.217421 c -0.135271,0.119494 -2.356,2.093757 -4.933494,4.387517 l -4.68782,4.17095 -0.73774,1.11947 c -0.405796,0.61659 -0.765965,1.12031 -0.79998,1.12031 -0.03485,0 -2.167639,-1.34852 -4.739313,-2.99749 -2.572569,-1.64809 -5.414843,-3.46885 -6.316048,-4.04558 l -1.638975,-1.04811 0.269704,-0.0614 c 0.14854,-0.034 4.582445,-0.66141 9.8546,-1.395 5.272155,-0.732771 10.443861,-1.456406 11.493575,-1.608229 1.049774,-0.151868 1.973458,-0.280496 2.052265,-0.286302 z m 70.006838,0.02655 c 0.16846,0.02655 5.4032,0.757666 11.63298,1.624795 6.22978,0.86639 11.4488,1.60331 11.59641,1.63734 l 0.26805,0.0622 -1.1809,0.76015 c -0.64976,0.41825 -3.48959,2.23809 -6.31112,4.04558 -2.82063,1.80659 -5.15842,3.28541 -5.19499,3.28541 -0.0373,0 -0.39915,-0.50456 -0.80496,-1.12031 l -0.73774,-1.12031 -4.67872,-4.17006 c -2.57346,-2.29376 -4.79319,-4.267214 -4.93439,-4.386618 l -0.2556,-0.215764 0.14777,-0.225719 c 0.1294,-0.19751 0.18588,-0.219913 0.45309,-0.176764 z M 66.517764,99.4366 c 0.157673,0.09709 1.006624,0.60331 1.887038,1.1253 l 1.601662,0.94853 3.303623,4.55513 3.304518,4.55588 2.511225,7.38576 c 1.380883,4.06214 3.012426,8.86041 3.624822,10.66282 0.61244,1.80241 1.080476,3.23974 1.039818,3.19497 -0.04066,-0.0448 -3.874674,-7.1592 -8.520254,-15.80766 -4.64558,-8.64966 -8.579957,-15.96736 -8.742646,-16.261397 l -0.296257,-0.53526 z m 67.193366,-0.0249 c 0.0166,0.01576 -3.88049,7.30607 -8.65966,16.2002 -4.77916,8.8937 -8.7219,16.20766 -8.76249,16.25244 -0.0406,0.0448 0.42903,-1.39748 1.04313,-3.20497 0.6141,-1.80823 2.24555,-6.6065 3.62482,-10.66282 l 2.50779,-7.37576 3.30124,-4.55185 3.30123,-4.55259 1.80749,-1.06719 c 0.99417,-0.587544 1.82077,-1.054758 1.83644,-1.038161 z m -67.903823,0.495529 c 0.04564,0.01164 0.536097,0.858911 1.088775,1.882111 0.649784,1.20164 0.97343,1.88048 0.912847,1.91451 -0.05063,0.0298 -2.404955,0.86058 -5.230662,1.84733 -2.826453,0.98587 -5.146034,1.78331 -5.155884,1.77182 -0.0091,-0.0119 1.854799,-1.68958 4.142737,-3.72945 2.287044,-2.03898 4.19662,-3.698709 4.242292,-3.686321 z m 68.502343,-0.01576 c 0.0357,0.01328 1.93271,1.686291 4.21647,3.717811 2.28376,2.03062 4.14274,3.70199 4.13184,3.71363 -0.0104,0.0119 -2.366,-0.79998 -5.23305,-1.80405 -2.8672,-1.00332 -5.22156,-1.83406 -5.23141,-1.84645 -0.0104,-0.0119 0.41577,-0.82489 0.94604,-1.80584 0.53112,-0.98173 0.99667,-1.83316 1.03484,-1.892115 0.0382,-0.05975 0.0995,-0.09709 0.13522,-0.08299 z m -62.629136,2.246301 c 0.285467,0.10373 3.328549,1.21407 6.762472,2.46719 3.433923,1.25309 6.244704,2.29869 6.244704,2.32197 8.3e-4,0.024 -1.614049,0.69377 -3.588253,1.48795 -1.974204,0.79335 -3.70527,1.49125 -3.847212,1.55017 l -0.258093,0.10627 -2.916155,-4.01647 c -1.60405,-2.20913 -2.916156,-4.03647 -2.916156,-4.0614 0,-0.024 0.233197,0.0406 0.518664,0.14448 z m 57.226086,-0.14776 c 0.0158,0.0149 -1.28545,1.83569 -2.89034,4.04631 l -2.91944,4.02065 -3.85139,-1.54106 c -2.11868,-0.84728 -3.85139,-1.56092 -3.85139,-1.58674 8.2e-4,-0.0249 0.51451,-0.2307 1.14106,-0.45642 0.62737,-0.22656 3.66139,-1.33359 6.74173,-2.46048 3.08123,-1.12695 5.61395,-2.03644 5.62977,-2.02241 z m -60.766428,2.28629 c 0.04896,-0.003 0.323646,0.42655 0.609112,0.95684 0.285466,0.52944 0.487961,0.99168 0.448961,1.02735 -0.03818,0.0357 -0.760159,0.25395 -1.604945,0.48465 -0.843966,0.2307 -3.99408,1.09624 -6.999042,1.9245 -3.005709,0.82737 -5.482009,1.48629 -5.504397,1.46388 -0.02158,-0.0216 0.205809,-0.40746 0.506215,-0.85642 l 0.546052,-0.81658 5.953357,-2.08868 c 3.274668,-1.14854 5.994851,-2.09122 6.044702,-2.0954 z m 63.760488,-0.007 c 0.0273,-8.2e-4 2.74601,0.94024 6.04306,2.09047 l 5.99321,2.09212 0.54771,0.82156 c 0.30041,0.45228 0.53028,0.839 0.50871,0.85974 -0.0207,0.0208 -2.29122,-0.58256 -5.04723,-1.34106 -2.75511,-0.75848 -5.9053,-1.62479 -7.00068,-1.92525 -1.09542,-0.30122 -2.02316,-0.57508 -2.06137,-0.60911 -0.039,-0.0331 0.16348,-0.4946 0.44894,-1.02404 0.28549,-0.53029 0.54107,-0.96431 0.56764,-0.96431 z m -46.41699,3.07541 c 0.04896,-0.003 0.916161,1.20414 1.927786,2.68048 l 1.838082,2.68541 -1.927785,10.75834 c -1.060565,5.91769 -1.949278,10.75909 -1.975099,10.75909 -0.02655,0 -1.853008,-5.31022 -4.060498,-11.79985 -2.206595,-6.49038 -3.977512,-11.81313 -3.936019,-11.8288 0.04233,-0.0149 1.869725,-0.75352 4.060498,-1.63972 2.190773,-0.88548 4.023184,-1.61241 4.072886,-1.61495 z m 29.10036,-0.004 c 0.0415,0 1.89286,0.73194 4.11438,1.62659 2.22152,0.89459 4.05304,1.63987 4.0696,1.65644 0.0175,0.0158 -1.77256,5.3335 -3.97676,11.81716 -2.20496,6.48292 -4.02975,11.78731 -4.05632,11.78731 -0.0257,0 -0.91451,-4.8414 -1.9751,-10.75909 l -1.92779,-10.75834 1.83809,-2.68541 c 1.01161,-1.47631 1.87211,-2.68466 1.9136,-2.68466 z m -16.161393,0.0896 h 1.277627 v 25.79733 l -0.145225,0.0406 c -0.07967,0.0233 -3.140188,0.46305 -6.800681,0.97756 -3.661389,0.51535 -6.680382,0.91203 -6.710233,0.88215 -0.02988,-0.0299 2.271372,-5.81649 5.11275,-12.85956 2.842274,-7.04308 5.352604,-13.26285 5.579174,-13.82212 l 0.410781,-1.01657 z m 3.218253,0 h 1.27632 l 0.41079,1.01658 c 0.22655,0.55932 2.7369,6.77919 5.57827,13.82211 2.84228,7.04307 5.14514,12.82881 5.11693,12.85628 -0.0273,0.0273 -0.88131,-0.0672 -1.89629,-0.20996 -1.01574,-0.14358 -3.99333,-0.56181 -6.61814,-0.92861 -2.62406,-0.36681 -4.85558,-0.68631 -4.95842,-0.70871 l -0.18672,-0.0424 v -25.8048 z m -5.451415,0.7809 c 0.0091,0.007 -2.191669,5.47291 -4.890359,12.14582 -2.699586,6.67292 -4.919464,12.12015 -4.93439,12.10598 -0.01418,-0.0149 0.758487,-4.40155 1.717036,-9.74833 0.95849,-5.34679 1.742708,-9.75416 1.742708,-9.79401 0,-0.0399 1.01658,-0.81575 2.258088,-1.7236 1.242299,-0.90786 2.670481,-1.95435 3.174219,-2.32451 0.503722,-0.37094 0.923638,-0.66803 0.932757,-0.66139 z m 7.799055,0.0573 c 0.0888,0.0639 1.53106,1.11947 3.20571,2.34525 1.67465,1.2257 3.04481,2.26212 3.04481,2.30286 0,0.0415 0.78422,4.45051 1.74271,9.79818 0.95849,5.34768 1.73032,9.7343 1.71614,9.74833 -0.0134,0.0149 -2.22659,-5.41156 -4.91693,-12.05791 -2.68958,-6.64545 -4.90453,-12.12179 -4.92185,-12.16821 -0.0175,-0.0464 0.0406,-0.0324 0.12941,0.0315 z m -3.83229,25.59733 c 0.13687,0.0175 3.29288,0.48132 7.01233,1.0315 3.72034,0.5502 6.79083,1.00912 6.82307,1.01908 0.0331,0.0104 -1.64734,2.36182 -3.73438,5.22484 l -3.79408,5.20484 H 93.600338 l -3.485416,-4.78006 c -1.917039,-2.62899 -3.624075,-4.97424 -3.792435,-5.21156 l -0.307049,-0.43069 3.501984,-0.52034 c 1.926143,-0.28712 5.052152,-0.75683 6.945907,-1.04478 1.894501,-0.28796 3.556011,-0.50953 3.692881,-0.49294 z m -15.244965,2.73272 c 0.01328,0.0564 -0.108717,0.80829 -0.27054,1.66972 -0.162659,0.86222 -0.313691,1.61659 -0.335258,1.67629 -0.02158,0.059 -0.906206,1.32529 -1.965995,2.81407 -1.058908,1.48794 -1.935248,2.67137 -1.94689,2.62988 -0.01164,-0.0415 0.454767,-1.63734 1.036491,-3.54691 l 1.058909,-3.47139 1.199149,-0.9369 c 0.668038,-0.52282 1.20994,-0.89211 1.224045,-0.83485 z m 0.805801,-0.0273 c 0.05643,0.0613 1.438152,1.94106 3.070486,4.17751 1.631513,2.23645 3.009142,4.11945 3.059739,4.18498 0.07552,0.0954 0.06722,0.10373 -0.03984,0.0415 -0.07303,-0.0424 -1.646438,-1.18919 -3.496163,-2.54854 l -3.36422,-2.47137 0.06473,-0.30871 c 0.03569,-0.17012 0.185062,-0.956 0.33278,-1.74763 0.2166,-1.16099 0.288795,-1.41659 0.372602,-1.32778 z m 28.734684,-0.0282 c 0.0166,0.0498 0.17096,0.84065 0.34274,1.75673 l 0.31203,1.66555 -3.3675,2.47137 c -1.85227,1.3585 -3.42318,2.50376 -3.49199,2.54436 -0.0681,0.0415 -0.0291,-0.0539 0.0888,-0.21161 0.11702,-0.15768 1.53435,-2.09287 3.14929,-4.30125 1.61569,-2.20913 2.95019,-3.97498 2.96675,-3.92527 z m 1.16015,0.2921 c 0.26224,0.20332 0.81161,0.63153 1.21989,0.95269 l 0.74273,0.58256 1.05807,3.47138 c 0.58256,1.90958 1.04894,3.50542 1.03733,3.54691 -0.0119,0.0415 -0.88795,-1.14189 -1.94689,-2.62988 -1.05973,-1.48877 -1.94435,-2.75511 -1.96599,-2.81407 -0.0217,-0.0597 -0.17096,-0.80496 -0.33111,-1.65554 -0.16017,-0.84978 -0.29129,-1.60823 -0.29129,-1.68465 0,-0.10373 0.12284,-0.044 0.47717,0.23069 z m -30.416795,4.09125 c 0.06555,0.0389 1.844799,1.33857 3.953481,2.8863 2.109579,1.54853 3.819003,2.8572 3.799152,2.9087 -0.01991,0.0515 -1.128611,1.76509 -2.463911,3.80736 -1.335241,2.04316 -2.453911,3.68452 -2.485404,3.64721 -0.03236,-0.0366 -0.682143,-2.97915 -1.444794,-6.53934 -0.762636,-3.56004 -1.40745,-6.54262 -1.432346,-6.62725 -0.03403,-0.11701 -0.0166,-0.13686 0.07385,-0.083 z m 29.743655,-0.0273 c 0.009,0.009 -0.62488,2.99079 -1.40827,6.62725 -0.78339,3.63557 -1.44811,6.63396 -1.47632,6.66217 -0.0282,0.0282 -1.14439,-1.62151 -2.48048,-3.66542 -1.3369,-2.0439 -2.43391,-3.76183 -2.43899,-3.81736 -0.004,-0.0557 1.746,-1.38836 3.88961,-2.96182 2.1436,-1.5742 3.90527,-2.85392 3.91437,-2.84482 z m -30.506351,0.0573 c 0.02655,0 0.686292,2.95929 1.466361,6.57665 0.779234,3.61736 1.405779,6.58903 1.39251,6.60396 -0.01418,0.0149 -1.681364,-1.4896 -3.704524,-3.34437 -2.024055,-1.8539 -3.675418,-3.41646 -3.670493,-3.47139 0.0049,-0.0548 1.012431,-1.50957 2.238983,-3.23227 1.226538,-1.72286 2.251371,-3.13273 2.277192,-3.13273 z m 31.212331,0.0191 c 0.034,0.0119 1.05807,1.42238 2.27629,3.13437 1.21741,1.71122 2.22824,3.15019 2.24555,3.19586 0.0182,0.0464 -1.63226,1.60913 -3.66721,3.47303 -2.0348,1.8639 -3.71198,3.37586 -3.72691,3.36004 -0.0149,-0.0158 0.61162,-2.98914 1.39169,-6.60739 0.78007,-3.61736 1.44644,-6.56755 1.48047,-6.55591 z m -15.61214,5.97023 h 6.36426 l 0.12373,0.14522 c 0.0681,0.0797 1.08546,1.61405 2.26048,3.409 1.17509,1.79495 2.1245,3.27541 2.10958,3.28959 -0.0158,0.0134 -1.40578,-0.96014 -3.09034,-2.1642 l -3.06213,-2.19003 h -9.434741 l -2.842274,2.05644 c -1.564348,1.13027 -2.969291,2.14525 -3.124367,2.25391 l -0.280496,0.19835 0.288794,-0.44896 c 0.15851,-0.2473 1.141059,-1.75674 2.182565,-3.35437 1.040639,-1.59749 1.948531,-2.97004 2.017338,-3.04974 l 0.123643,-0.14523 z m -0.0149,3.15839 4.50781,-0.004 3.33437,2.30286 3.33437,2.30287 -5.58081,0.0216 c -3.06959,0.0119 -8.089506,0.0119 -11.155813,0 l -5.57589,-0.0216 3.314519,-2.29794 3.313623,-2.29794 z"
         id="icon" /></g></g></svg>